<?xml version="1.0" encoding="utf-8"?>
<!-- Generator: Adobe Illustrator 27.5.0, SVG Export Plug-In . SVG Version: 6.00 Build 0)  -->
<svg version="1.1" xmlns="http://www.w3.org/2000/svg" xmlns:xlink="http://www.w3.org/1999/xlink" x="0px" y="0px"
	 viewBox="0 0 800 800" style="enable-background:new 0 0 800 800;" xml:space="preserve">
<g id="Layer_1" style="display:none;">
	<radialGradient id="SVGID_1_" cx="400" cy="400" r="543.116" gradientUnits="userSpaceOnUse">
		<stop  offset="0" style="stop-color:#FBFBFB"/>
		<stop  offset="1" style="stop-color:#D5DDD9"/>
	</radialGradient>
	<rect style="display:inline;fill:url(#SVGID_1_);" width="800" height="800"/>
</g>
<g id="Layer_2">
	<g>
		<g>
			<g id="XMLID_9_">
				<g>
					
						<linearGradient id="SVGID_00000078033089397714408480000005318145493098693266_" gradientUnits="userSpaceOnUse" x1="478.7653" y1="322.3634" x2="394.4037" y2="241.7231">
						<stop  offset="0" style="stop-color:#FCEA0D"/>
						<stop  offset="0.2525" style="stop-color:#F29100"/>
						<stop  offset="0.5101" style="stop-color:#E5332A"/>
						<stop  offset="0.7677" style="stop-color:#BD1622"/>
						<stop  offset="1" style="stop-color:#3C3C3B"/>
					</linearGradient>
					<path style="fill:url(#SVGID_00000078033089397714408480000005318145493098693266_);" d="M475.383,325.159
						c-3.175-30.23-72.236-27.659-73.195-58.702l0.061-24.681c0.947,31.042,69.959,28.545,73.134,58.775V325.159z"/>
				</g>
				<g>
				</g>
			</g>
			<g id="XMLID_8_">
				<g>
					
						<linearGradient id="SVGID_00000007401978904939582520000005114744367368461455_" gradientUnits="userSpaceOnUse" x1="321.2353" y1="322.3658" x2="405.6037" y2="241.7191">
						<stop  offset="0" style="stop-color:#FCEA0D"/>
						<stop  offset="0.2525" style="stop-color:#F29100"/>
						<stop  offset="0.5101" style="stop-color:#E5332A"/>
						<stop  offset="0.7677" style="stop-color:#BD1622"/>
						<stop  offset="1" style="stop-color:#3C3C3B"/>
					</linearGradient>
					<path style="fill:url(#SVGID_00000007401978904939582520000005114744367368461455_);" d="M397.762,241.776
						c-0.96,31.042-69.96,28.545-73.146,58.775v24.607c3.186-30.23,72.248-27.659,73.195-58.702L397.762,241.776z"/>
				</g>
				<g>
				</g>
			</g>
			<g id="XMLID_7_">
				<g>
					
						<linearGradient id="SVGID_00000019671781854945999140000014078477795433258409_" gradientUnits="userSpaceOnUse" x1="476.799" y1="338.1964" x2="395.3684" y2="395.5164">
						<stop  offset="0" style="stop-color:#FCEA0D"/>
						<stop  offset="0.2677" style="stop-color:#F8B133"/>
						<stop  offset="0.601" style="stop-color:#F8B133"/>
						<stop  offset="0.8417" style="stop-color:#E84E1B"/>
					</linearGradient>
					<path style="fill:url(#SVGID_00000019671781854945999140000014078477795433258409_);" d="M402.188,382.647v24.607
						c0.959-31.042,70.021-28.471,73.195-58.701v-24.607C472.208,354.177,403.146,351.605,402.188,382.647z"/>
				</g>
				<g>
				</g>
			</g>
			<g id="XMLID_6_">
				<g>
					
						<linearGradient id="SVGID_00000163072094122817846200000007881001790096827313_" gradientUnits="userSpaceOnUse" x1="323.2019" y1="338.1937" x2="404.6325" y2="395.5138">
						<stop  offset="0" style="stop-color:#FCEA0D"/>
						<stop  offset="0.2677" style="stop-color:#F8B133"/>
						<stop  offset="0.601" style="stop-color:#F8B133"/>
						<stop  offset="0.8417" style="stop-color:#E84E1B"/>
					</linearGradient>
					<path style="fill:url(#SVGID_00000163072094122817846200000007881001790096827313_);" d="M397.811,407.255
						c-0.948-31.042-70.009-28.471-73.195-58.701v-24.607c3.186,30.23,72.248,27.659,73.195,58.701V407.255z"/>
				</g>
				<g>
				</g>
			</g>
			<g id="XMLID_5_">
				<g>
					
						<linearGradient id="SVGID_00000010268248937944431140000013377512445229457562_" gradientUnits="userSpaceOnUse" x1="402.1875" y1="398.821" x2="475.3828" y2="398.821">
						<stop  offset="0.0169" style="stop-color:#BD4213"/>
						<stop  offset="0.3434" style="stop-color:#E84E1B"/>
						<stop  offset="0.7323" style="stop-color:#F29100"/>
						<stop  offset="1" style="stop-color:#F8B133"/>
					</linearGradient>
					<path style="fill:url(#SVGID_00000010268248937944431140000013377512445229457562_);" d="M402.188,415.868v24.607
						c0.959-31.043,70.021-28.471,73.195-58.702v-24.607C472.208,387.397,403.146,384.825,402.188,415.868z"/>
				</g>
				<g>
				</g>
			</g>
			<g id="XMLID_4_">
				<g>
					
						<linearGradient id="SVGID_00000181061146581068000560000002690300865301487541_" gradientUnits="userSpaceOnUse" x1="398.1904" y1="398.9788" x2="324.9707" y2="398.9788">
						<stop  offset="0.0169" style="stop-color:#BD4213"/>
						<stop  offset="0.3434" style="stop-color:#E84E1B"/>
						<stop  offset="0.7323" style="stop-color:#F29100"/>
						<stop  offset="1" style="stop-color:#F8B133"/>
					</linearGradient>
					<path style="fill:url(#SVGID_00000181061146581068000560000002690300865301487541_);" d="M398.19,440.517
						c-0.947-31.043-70.045-28.237-73.22-58.468v-24.608c3.174,30.23,72.248,27.659,73.195,58.702L398.19,440.517z"/>
				</g>
				<g>
				</g>
			</g>
			
				<linearGradient id="SVGID_00000013887063478907252780000002201510844766511756_" gradientUnits="userSpaceOnUse" x1="7.9433" y1="215.4241" x2="7.9433" y2="144.9936" gradientTransform="matrix(0.7071 0.7071 -0.7071 0.7071 521.1475 191.7363)">
				<stop  offset="0" style="stop-color:#FCEA0D"/>
				<stop  offset="0.3514" style="stop-color:#F29100"/>
				<stop  offset="0.618" style="stop-color:#E20613"/>
				<stop  offset="0.9831" style="stop-color:#3C3C3B"/>
			</linearGradient>
			<polygon style="fill:url(#SVGID_00000013887063478907252780000002201510844766511756_);" points="414.329,309.788 
				440.522,324.114 414.329,338.44 400.003,364.632 385.677,338.44 359.483,324.114 385.677,309.788 400.003,283.596 			"/>
		</g>
		<g>
			<text transform="matrix(1 0 0 1 194.2144 502.3828)"><tspan x="0" y="0" style="fill:#EA5B27; font-family:'Sansation-Bold'; font-size:75.5556px;">Royal</tspan><tspan x="171.962" y="0" style="fill:#1D1D1B; font-family:'Sansation-Bold'; font-size:75.5556px;"> </tspan><tspan x="187.979" y="0" style="fill:#1D1D1B; font-family:'Sansation-Regular'; font-size:75.5556px;">styles</tspan></text>
			
				<text transform="matrix(1 0 0 1 222.6763 549.2236)" style="fill:#1D1D1B; font-family:'MyriadPro-Regular'; font-size:36.0054px; letter-spacing:3;">its for your tag line</text>
		</g>
	</g>
</g>
</svg>
