<?xml version="1.0" encoding="utf-8"?>
<!-- Generator: Adobe Illustrator 27.5.0, SVG Export Plug-In . SVG Version: 6.00 Build 0)  -->
<svg version="1.1" id="Layer_1" xmlns="http://www.w3.org/2000/svg" xmlns:xlink="http://www.w3.org/1999/xlink" x="0px" y="0px"
	 viewBox="0 0 1300 1300" style="enable-background:new 0 0 1300 1300;" xml:space="preserve">
<g id="XMLID_1_">
	<g id="XMLID_6_">
		<g id="XMLID_22_">
			<path id="XMLID_23_" style="fill:#003E56;" d="M1021.856,815.635c-36.923,4.625-71.198,27.46-108.091,22.596
				c-36.892-4.864-73.828-20.367-97.011-49.475c-16.882-21.196-25.302-47.953-29.965-74.646
				c-4.663-26.693-5.914-53.884-10.328-80.62c-9.205-55.755-20.024-111.138-64.735-145.696c28.144,6.483,43.372,7.982,71.444,14.77
				c28.073,6.788,56.189,19.969,72.429,43.852c19.058,28.027,18.137,64.421,23.714,97.851
				C893.044,726.559,943.671,786.527,1021.856,815.635L1021.856,815.635z"/>
		</g>
		<g id="XMLID_20_">
			<path id="XMLID_21_" style="fill:#003E56;" d="M278.144,825.674c14.456-34.289,46.665-66.052,69.323-95.57
				c22.659-29.518,54.553-53.753,91.352-59.277c26.797-4.022,54.18,2.065,79.628,11.373c25.448,9.308,49.622,21.82,74.983,31.365
				c52.888,19.905,98.482,11.462,150.766-9.98c-11.359,28.361-28.509,58.747-48.424,79.664s-37.699,40.265-66.502,42.388
				c-33.801,2.491-64.859-16.504-96.599-28.388C454.539,767.995,342.445,772.518,278.144,825.674L278.144,825.674z"/>
		</g>
		<g id="XMLID_4_">
			<path id="XMLID_19_" style="fill:#003E56;" d="M641.306,176.581c22.467,29.664,68.717,82.776,82.951,117.158
				s19.275,74.12,5.659,108.751c-9.915,25.218-28.878,45.888-49.663,63.273c-20.786,17.385-43.708,32.064-64.654,49.254
				c-43.682,35.849-94.015,70.22-101.587,126.219c-8.457-27.615-6.995-38.861-15.153-66.567c-8.158-27.706-10.8-58.645,1.763-84.651
				c14.743-30.518,46.722-47.917,72.885-69.463C637.907,367.52,655.19,258.846,641.306,176.581L641.306,176.581z"/>
		</g>
		<g id="XMLID_15_">
			
				<linearGradient id="XMLID_00000023281302223843595000000016595346208252605337_" gradientUnits="userSpaceOnUse" x1="852.4777" y1="825.0052" x2="852.4777" y2="473.0666">
				<stop  offset="0" style="stop-color:#006C6E"/>
				<stop  offset="1" style="stop-color:#00B3B5"/>
			</linearGradient>
			<path id="XMLID_16_" style="fill:url(#XMLID_00000023281302223843595000000016595346208252605337_);" d="M1021.856,815.635
				c-36.923,4.625-85.926,12.732-122.819,7.868c-36.892-4.864-73.828-20.367-97.011-49.475
				c-16.882-21.196-25.302-47.953-29.964-74.646c-4.663-26.693-5.914-53.884-10.328-80.62
				c-9.205-55.755-33.923-111.138-78.635-145.696c28.144,6.483,57.271,7.982,85.344,14.77s56.189,19.969,72.429,43.852
				c19.058,28.027,18.137,64.421,23.714,97.851C878.316,711.831,943.671,786.527,1021.856,815.635L1021.856,815.635z"/>
		</g>
		<g id="XMLID_13_">
			
				<linearGradient id="XMLID_00000013176646589362177990000000543679501762689209_" gradientUnits="userSpaceOnUse" x1="278.1437" y1="740.2567" x2="744.1952" y2="740.2567">
				<stop  offset="0" style="stop-color:#006C6E"/>
				<stop  offset="1" style="stop-color:#00B3B5"/>
			</linearGradient>
			<path id="XMLID_14_" style="fill:url(#XMLID_00000013176646589362177990000000543679501762689209_);" d="M278.144,825.674
				c14.456-34.289,31.937-80.78,54.595-110.298c22.659-29.518,54.552-53.753,91.352-59.277c26.797-4.022,54.18,2.065,79.628,11.373
				c25.448,9.308,49.622,21.82,74.983,31.365c52.888,19.905,113.21,26.19,165.494,4.748c-19.687,21.132-35.548,45.607-55.463,66.525
				c-19.915,20.918-45.388,38.676-74.191,40.799c-33.801,2.491-64.859-16.504-96.599-28.388
				C439.811,753.267,342.445,772.518,278.144,825.674L278.144,825.674z"/>
		</g>
		<g id="XMLID_11_">
			
				<linearGradient id="XMLID_00000098912892970832620240000016777116446617904011_" gradientUnits="userSpaceOnUse" x1="600.2087" y1="641.2373" x2="600.2087" y2="176.5808">
				<stop  offset="0" style="stop-color:#00B3B5"/>
				<stop  offset="1" style="stop-color:#006C6E"/>
			</linearGradient>
			<path id="XMLID_12_" style="fill:url(#XMLID_00000098912892970832620240000016777116446617904011_);" d="M641.306,176.581
				c22.467,29.664,53.989,68.048,68.223,102.43c14.234,34.382,19.275,74.12,5.659,108.751
				c-9.915,25.218-28.878,45.888-49.663,63.273c-20.785,17.385-43.708,32.064-64.654,49.254
				c-43.682,35.849-79.287,84.948-86.859,140.948c-8.457-27.615-21.723-53.589-29.881-81.295
				c-8.158-27.706-10.8-58.645,1.763-84.651c14.743-30.518,46.722-47.917,72.885-69.463
				C623.179,352.792,655.19,258.846,641.306,176.581L641.306,176.581z"/>
		</g>
		
			<linearGradient id="XMLID_00000037687612352093620250000007550616751100307606_" gradientUnits="userSpaceOnUse" x1="472.207" y1="740.2426" x2="475.173" y2="700.2338">
			<stop  offset="0" style="stop-color:#00929E;stop-opacity:0"/>
			<stop  offset="1" style="stop-color:#00B3B5"/>
		</linearGradient>
		<path id="XMLID_5_" style="fill:url(#XMLID_00000037687612352093620250000007550616751100307606_);" d="M362.917,735.139
			c0,0,85.423-82.06,218.957,5.118"/>
		
			<linearGradient id="XMLID_00000023267234780195901300000013836507886826858118_" gradientUnits="userSpaceOnUse" x1="830.0452" y1="718.7833" x2="863.1262" y2="699.684">
			<stop  offset="0" style="stop-color:#00B3B5"/>
			<stop  offset="1" style="stop-color:#00929E;stop-opacity:0"/>
		</linearGradient>
		<path id="XMLID_18_" style="fill:url(#XMLID_00000023267234780195901300000013836507886826858118_);" d="M917.878,794.518
			c0,0-114.763-29.33-111.077-188.76"/>
		
			<linearGradient id="XMLID_00000080928942874833648200000014007157522863814827_" gradientUnits="userSpaceOnUse" x1="620.6857" y1="434.2007" x2="593.656" y2="407.1711">
			<stop  offset="0" style="stop-color:#00B3B5"/>
			<stop  offset="1" style="stop-color:#00929E;stop-opacity:0"/>
		</linearGradient>
		<path id="XMLID_17_" style="fill:url(#XMLID_00000080928942874833648200000014007157522863814827_);" d="M671.087,329.74
			c0,0,1.404,118.443-153.537,156.188"/>
	</g>
	<g id="XMLID_2_">
		<g id="XMLID_64_">
			<path id="XMLID_65_" style="fill:#003E56;" d="M279.178,895.107h13.867v95.795h45.905v11.636h-59.772V895.107z"/>
			<path id="XMLID_67_" style="fill:#003E56;" d="M440.005,947.706c0,36.979-22.474,56.584-49.89,56.584
				c-28.372,0-48.296-21.996-48.296-54.512c0-34.11,21.199-56.426,49.89-56.426C421.037,893.353,440.005,915.827,440.005,947.706z
				 M356.642,949.459c0,22.953,12.433,43.515,34.27,43.515c21.996,0,34.429-20.243,34.429-44.63
				c0-21.359-11.158-43.674-34.27-43.674C368.119,904.67,356.642,925.869,356.642,949.459z"/>
			<path id="XMLID_70_" style="fill:#003E56;" d="M539.783,997.755c-6.216,2.231-18.49,5.898-32.995,5.898
				c-16.258,0-29.647-4.145-40.167-14.187c-9.245-8.926-14.983-23.271-14.983-40.008c0.159-32.038,22.156-55.469,58.178-55.469
				c12.433,0,22.156,2.71,26.778,4.941l-3.347,11.316c-5.738-2.55-12.911-4.622-23.75-4.622c-26.141,0-43.196,16.258-43.196,43.195
				c0,27.257,16.417,43.356,41.442,43.356c9.085,0,15.302-1.275,18.49-2.869V957.27h-21.837v-11.157h35.385V997.755z"/>
			<path id="XMLID_72_" style="fill:#003E56;" d="M652.791,947.706c0,36.979-22.474,56.584-49.89,56.584
				c-28.372,0-48.296-21.996-48.296-54.512c0-34.11,21.199-56.426,49.89-56.426C633.823,893.353,652.791,915.827,652.791,947.706z
				 M569.428,949.459c0,22.953,12.433,43.515,34.27,43.515c21.996,0,34.429-20.243,34.429-44.63
				c0-21.359-11.158-43.674-34.27-43.674C580.904,904.67,569.428,925.869,569.428,949.459z"/>
			<path id="XMLID_75_" style="fill:#003E56;" d="M718.46,906.902h-32.676v-11.795h79.537v11.795h-32.835v95.636H718.46V906.902z"/>
			<path id="XMLID_77_" style="fill:#003E56;" d="M832.902,952.169h-41.761v38.732h46.543v11.636h-60.41V895.107h58.018v11.636
				h-44.151v33.95h41.761V952.169z"/>
			<path id="XMLID_79_" style="fill:#003E56;" d="M914.508,1002.537l-13.707-23.75c-5.579-9.085-9.086-14.983-12.434-21.199h-0.318
				c-3.028,6.217-6.057,11.955-11.636,21.359l-12.911,23.59h-15.939l32.836-54.354l-31.561-53.077h16.099l14.187,25.184
				c3.984,7.014,7.013,12.433,9.882,18.171h0.479c3.028-6.376,5.738-11.316,9.723-18.171l14.664-25.184h15.939l-32.676,52.28
				l33.473,55.15H914.508z"/>
			<path id="XMLID_81_" style="fill:#003E56;" d="M968.382,906.902h-32.676v-11.795h79.537v11.795h-32.835v95.636h-14.026V906.902z"
				/>
		</g>
		<g id="XMLID_7_">
			<path id="XMLID_8_" style="fill:#00B3B5;" d="M276.228,1098.547c0.238-4.046,0.476-9.044,0.476-13.328v-71.164h5.593v37.962
				h0.238c3.808-7.378,10.83-11.9,20.945-11.9c14.399,0,24.395,12.02,24.395,29.274c0,20.35-12.971,30.465-25.467,30.465
				c-9.163,0-15.946-3.688-20.468-11.662h-0.238l-0.357,10.354H276.228z M282.297,1076.531c0,1.309,0.238,2.737,0.476,4.165
				c2.499,8.688,9.877,14.399,18.802,14.399c13.09,0,20.588-10.71,20.588-25.586c0-13.09-7.14-24.752-20.112-24.752
				c-8.33,0-16.303,5.831-19.04,15.351c-0.357,1.429-0.714,2.976-0.714,4.999V1076.531z"/>
			<path id="XMLID_24_" style="fill:#00B3B5;" d="M386.302,1084.623c0,4.999,0.238,9.521,0.476,13.924h-5.236l-0.357-10.115h-0.238
				c-2.856,5.236-9.401,11.424-19.635,11.424c-7.259,0-19.398-3.569-19.398-25.229v-33.201h5.593v32.131
				c0,12.376,3.927,21.301,15.232,21.301c8.33,0,14.399-5.831,16.779-11.543c0.595-1.785,1.19-4.046,1.19-6.308v-35.581h5.593
				V1084.623z"/>
			<path id="XMLID_27_" style="fill:#00B3B5;" d="M403.198,1091.05c3.094,1.904,7.735,3.927,12.852,3.927
				c9.045,0,13.329-4.879,13.329-10.829c0-6.308-3.808-9.64-12.02-12.972c-9.401-3.569-14.518-8.687-14.518-15.589
				c0-8.212,6.426-15.471,17.612-15.471c5.236,0,9.639,1.547,12.614,3.57l-2.261,4.641c-1.904-1.428-5.593-3.451-11.306-3.451
				c-7.259,0-11.067,4.642-11.067,9.878c0,5.95,4.046,8.568,11.782,11.781c9.282,3.57,14.756,8.211,14.756,16.898
				c0,9.758-7.616,16.304-19.279,16.304c-5.593,0-10.71-1.548-14.518-3.928L403.198,1091.05z"/>
			<path id="XMLID_29_" style="fill:#00B3B5;" d="M457.342,1025.122c0,2.618-1.785,4.879-4.76,4.879
				c-2.618,0-4.403-2.261-4.403-4.879c0-2.618,2.023-4.998,4.641-4.998C455.557,1020.124,457.342,1022.385,457.342,1025.122z
				 M449.964,1098.547v-57.121h5.593v57.121H449.964z"/>
			<path id="XMLID_32_" style="fill:#00B3B5;" d="M474.834,1055.111c0-5.235-0.238-9.163-0.476-13.685h5.236l0.476,10.353h0.238
				c3.094-6.426,10.234-11.662,19.636-11.662c5.474,0,19.873,2.737,19.873,24.157v34.273h-5.593v-33.797
				c0-10.354-4.046-19.755-15.827-19.755c-8.092,0-14.875,5.713-17.137,13.091c-0.476,1.428-0.833,3.332-0.833,5.117v35.344h-5.593
				V1055.111z"/>
			<path id="XMLID_35_" style="fill:#00B3B5;" d="M539.451,1069.391c0,18.327,9.997,25.467,21.778,25.467
				c8.33,0,12.614-1.666,15.827-3.213l1.428,4.522c-2.142,1.189-7.973,3.57-17.97,3.57c-16.422,0-26.657-11.9-26.657-28.681
				c0-19.04,10.949-30.94,25.705-30.94c18.684,0,22.253,17.612,22.253,25.824c0,1.547,0,2.499-0.238,3.45H539.451z
				 M575.866,1064.869c0.119-7.974-3.213-20.111-17.018-20.111c-12.614,0-18.088,11.305-19.041,20.111H575.866z"/>
			<path id="XMLID_43_" style="fill:#00B3B5;" d="M593.951,1091.05c3.094,1.904,7.735,3.927,12.852,3.927
				c9.044,0,13.329-4.879,13.329-10.829c0-6.308-3.808-9.64-12.02-12.972c-9.401-3.569-14.518-8.687-14.518-15.589
				c0-8.212,6.426-15.471,17.612-15.471c5.236,0,9.639,1.547,12.614,3.57l-2.261,4.641c-1.904-1.428-5.593-3.451-11.306-3.451
				c-7.259,0-11.067,4.642-11.067,9.878c0,5.95,4.046,8.568,11.782,11.781c9.282,3.57,14.756,8.211,14.756,16.898
				c0,9.758-7.616,16.304-19.279,16.304c-5.593,0-10.71-1.548-14.518-3.928L593.951,1091.05z"/>
			<path id="XMLID_45_" style="fill:#00B3B5;" d="M638.337,1091.05c3.094,1.904,7.735,3.927,12.853,3.927
				c9.044,0,13.328-4.879,13.328-10.829c0-6.308-3.809-9.64-12.019-12.972c-9.401-3.569-14.518-8.687-14.518-15.589
				c0-8.212,6.426-15.471,17.613-15.471c5.235,0,9.639,1.547,12.614,3.57l-2.262,4.641c-1.903-1.428-5.593-3.451-11.305-3.451
				c-7.26,0-11.068,4.642-11.068,9.878c0,5.95,4.046,8.568,11.782,11.781c9.282,3.57,14.756,8.211,14.756,16.898
				c0,9.758-7.616,16.304-19.278,16.304c-5.593,0-10.71-1.548-14.518-3.928L638.337,1091.05z"/>
			<path id="XMLID_47_" style="fill:#00B3B5;" d="M719.016,1024.884v16.542h16.304v4.521h-16.304v37.129
				c0,7.26,2.262,11.9,8.33,11.9c2.976,0,5.117-0.476,6.546-0.952l0.714,4.403c-1.904,0.714-4.523,1.31-7.974,1.31
				c-4.165,0-7.616-1.31-9.758-4.047c-2.618-2.975-3.57-7.734-3.57-13.566v-36.177h-9.64v-4.521h9.64v-14.757L719.016,1024.884z"/>
			<path id="XMLID_49_" style="fill:#00B3B5;" d="M779.111,1098.547l-0.833-8.211h-0.357c-2.737,4.402-9.044,9.52-18.207,9.52
				c-11.425,0-16.779-8.092-16.779-15.708c0-13.209,11.662-21.183,34.867-20.944v-1.429c0-5.712-1.07-17.017-14.637-16.898
				c-4.998,0-10.234,1.31-14.281,4.284l-1.784-4.165c5.117-3.451,11.543-4.879,16.66-4.879c16.541,0,19.636,12.376,19.636,22.61
				v22.254c0,4.522,0.237,9.163,0.833,13.566H779.111z M777.801,1067.963c-12.495-0.356-28.918,1.547-28.918,15.232
				c0,8.211,5.475,11.9,11.425,11.9c9.521,0,14.875-5.831,16.898-11.424c0.357-1.19,0.595-2.381,0.595-3.451V1067.963z"/>
			<path id="XMLID_52_" style="fill:#00B3B5;" d="M847.892,1041.426c-0.237,4.283-0.476,8.806-0.476,14.756v34.035
				c0,14.638-2.976,21.896-7.735,26.419c-5.236,4.998-12.972,6.783-19.398,6.783c-6.545,0-13.805-1.666-18.089-4.88l2.023-4.641
				c3.927,2.618,9.521,4.76,16.898,4.76c12.02,0,20.706-6.188,20.706-23.086v-8.093h-0.237c-2.976,5.831-9.64,11.067-19.874,11.067
				c-14.399,0-24.515-12.495-24.515-28.085c0-19.873,13.091-30.346,25.705-30.346c11.306,0,16.898,6.188,19.278,10.948h0.238
				l0.238-9.639H847.892z M841.823,1063.323c0-2.023-0.237-3.809-0.714-5.475c-2.38-6.902-8.449-13.09-17.731-13.09
				c-12.138,0-20.469,9.996-20.469,25.109c0,12.853,6.783,23.92,20.232,23.92c7.616,0,14.756-4.642,17.612-12.853
				c0.714-1.904,1.07-4.046,1.07-6.069V1063.323z"/>
			<path id="XMLID_55_" style="fill:#00B3B5;" d="M866.693,1014.055h5.593v84.492h-5.593V1014.055z"/>
			<path id="XMLID_57_" style="fill:#00B3B5;" d="M899.298,1025.122c0,2.618-1.785,4.879-4.76,4.879
				c-2.618,0-4.403-2.261-4.403-4.879c0-2.618,2.023-4.998,4.641-4.998C897.512,1020.124,899.298,1022.385,899.298,1025.122z
				 M891.92,1098.547v-57.121h5.593v57.121H891.92z"/>
			<path id="XMLID_60_" style="fill:#00B3B5;" d="M916.791,1055.111c0-5.235-0.238-9.163-0.477-13.685h5.236l0.476,10.353h0.238
				c3.094-6.426,10.234-11.662,19.636-11.662c5.474,0,19.873,2.737,19.873,24.157v34.273h-5.593v-33.797
				c0-10.354-4.046-19.755-15.827-19.755c-8.093,0-14.876,5.713-17.137,13.091c-0.476,1.428-0.833,3.332-0.833,5.117v35.344h-5.593
				V1055.111z"/>
			<path id="XMLID_62_" style="fill:#00B3B5;" d="M981.407,1069.391c0,18.327,9.996,25.467,21.777,25.467
				c8.33,0,12.614-1.666,15.827-3.213l1.429,4.522c-2.143,1.189-7.974,3.57-17.97,3.57c-16.423,0-26.657-11.9-26.657-28.681
				c0-19.04,10.948-30.94,25.705-30.94c18.684,0,22.254,17.612,22.254,25.824c0,1.547,0,2.499-0.238,3.45H981.407z
				 M1017.822,1064.869c0.118-7.974-3.214-20.111-17.018-20.111c-12.614,0-18.089,11.305-19.041,20.111H1017.822z"/>
		</g>
	</g>
</g>
</svg>
