<?xml version="1.0" encoding="utf-8"?>
<!-- Generator: Adobe Illustrator 27.5.0, SVG Export Plug-In . SVG Version: 6.00 Build 0)  -->
<svg version="1.1" id="Layer_1" xmlns="http://www.w3.org/2000/svg" xmlns:xlink="http://www.w3.org/1999/xlink" x="0px" y="0px"
	 viewBox="-24.506 -92.425 83.604 68.625" style="enable-background:new -24.506 -92.425 83.604 68.625;" xml:space="preserve">
<rect x="-24.639" y="-92.425" style="fill:#FFFFFF;" width="83.736" height="68.625"/>
<g>
	<g>
		
			<radialGradient id="SVGID_1_" cx="-277.1952" cy="-591.638" r="78.2969" fx="-267.4383" fy="-593.1888" gradientTransform="matrix(-0.1704 -0.0096 -0.0015 0.0272 -32.2026 -34.675)" gradientUnits="userSpaceOnUse">
			<stop  offset="0" style="stop-color:#272727"/>
			<stop  offset="0.0643" style="stop-color:#4C4C4C"/>
			<stop  offset="0.1592" style="stop-color:#7B7B7B"/>
			<stop  offset="0.2572" style="stop-color:#A3A3A3"/>
			<stop  offset="0.3569" style="stop-color:#C5C5C5"/>
			<stop  offset="0.4588" style="stop-color:#DEDEDE"/>
			<stop  offset="0.5637" style="stop-color:#F1F1F1"/>
			<stop  offset="0.6735" style="stop-color:#FBFBFB"/>
			<stop  offset="0.7963" style="stop-color:#FFFFFF"/>
		</radialGradient>
		<path style="opacity:0.72;fill:url(#SVGID_1_);" d="M2.559-48.861C2.492-47.69,8.422-46.398,15.8-45.98
			c7.387,0.423,13.419-0.191,13.478-1.361c0.072-1.178-5.85-2.475-13.237-2.892C8.665-50.658,2.625-50.04,2.559-48.861z"/>
		<g>
			<g>
				<path style="fill-rule:evenodd;clip-rule:evenodd;fill:#808384;" d="M13.132-64.675c-1.032,1.435-1.635,3.192-1.975,5.217
					c-0.722,4.217,0.723,8.291,3.269,10.77c-1.01-1.239-1.363-2.783-0.976-4.441c1.767,0.068,3.63-0.189,5.518-0.977
					c4.493-1.667,7.578-5.426,7.872-9.432c-0.326,2.021-1.414,3.62-3.609,4.3c-0.736-1.5-2.007-3.014-3.545-4.253
					c-3.442-2.972-8.037-3.654-11.524-2.35C9.772-66.354,11.597-65.915,13.132-64.675L13.132-64.675z"/>
			</g>
			<g>
				<path style="fill-rule:evenodd;clip-rule:evenodd;fill:#E89818;" d="M6.487-57.656c1.033,1.674,2.559,3.147,4.107,4.642
					c-0.359-1.342-0.882-2.844-0.916-4.192c-0.382-2.679-0.102-5.037,0.548-7.401l-0.175-0.169
					c-4.819,3.28-7.756,8.036-8.179,12.911C2.336-54.388,3.82-56.609,6.487-57.656L6.487-57.656z"/>
				<path style="fill-rule:evenodd;clip-rule:evenodd;fill:#7AAE25;" d="M15.186-50.26c4.581,2.109,9.446,2.187,13.271,0.62
					c-2.157,0.544-4.354,0.076-6.573-1.405c0.82-1.18,1.466-2.528,1.785-3.896c-0.668,0.692-1.498,1.204-2.331,1.737
					C19.531-51.662,17.354-50.793,15.186-50.26L15.186-50.26z"/>
				<path style="fill-rule:evenodd;clip-rule:evenodd;fill:#3976CF;" d="M24.378-62.292c-0.442-6.046-3.551-11.041-7.791-13.48
					c2.38,1.642,3.923,4.128,3.662,7.499c-2.029,0.036-4.03,0.416-6.034,1.11c1.675,0.305,3.366,0.621,4.903,1.424
					C20.975-64.941,22.843-63.776,24.378-62.292L24.378-62.292z"/>
			</g>
		</g>
	</g>
	<g>
		<g>
			<path style="fill:#676766;" d="M17.086-35.055c0.123,0,0.224-0.031,0.304-0.082c0.096-0.063,0.142-0.156,0.142-0.278
				c0-0.143-0.099-0.248-0.299-0.305c-0.005,0-0.017-0.004-0.028-0.011c-0.014-0.001-0.03-0.007-0.051-0.011
				c-0.247-0.068-0.406-0.128-0.479-0.188c-0.082-0.066-0.122-0.16-0.122-0.273c0-0.138,0.057-0.243,0.169-0.322
				c0.097-0.064,0.213-0.096,0.351-0.096c0.137,0,0.254,0.036,0.346,0.119c0.094,0.074,0.148,0.192,0.163,0.335h-0.091
				c-0.031-0.246-0.174-0.371-0.432-0.371c-0.109,0-0.198,0.024-0.271,0.075c-0.095,0.058-0.138,0.137-0.138,0.245
				c0,0.154,0.155,0.279,0.461,0.36c0.006,0.007,0.016,0.009,0.029,0.011c0.161,0.045,0.27,0.086,0.335,0.132
				c0.104,0.07,0.155,0.171,0.155,0.301c0,0.143-0.059,0.258-0.171,0.338c-0.107,0.074-0.227,0.108-0.37,0.108
				c-0.164,0-0.295-0.041-0.397-0.124c-0.104-0.086-0.167-0.22-0.18-0.391h0.091C16.653-35.198,16.812-35.055,17.086-35.055z"/>
			<path style="fill:#676766;" d="M17.999-37.021v0.437h0.302v0.083h-0.302v1.493h-0.092v-2.013H17.999z"/>
			<path style="fill:#676766;" d="M19.116-34.967c-0.22,0-0.389-0.081-0.509-0.245c-0.107-0.149-0.158-0.339-0.158-0.58
				c0-0.237,0.051-0.434,0.158-0.581c0.114-0.168,0.283-0.247,0.509-0.247c0.282,0,0.474,0.133,0.57,0.398v-0.362h0.092v1.576
				h-0.092v-0.339C19.589-35.091,19.398-34.967,19.116-34.967z M18.67-35.277c0.103,0.15,0.25,0.226,0.445,0.226
				c0.192,0,0.34-0.075,0.44-0.226c0.087-0.132,0.13-0.301,0.13-0.516c0-0.209-0.043-0.382-0.13-0.517
				c-0.101-0.153-0.248-0.228-0.44-0.228c-0.195,0-0.341,0.075-0.439,0.228c-0.091,0.131-0.135,0.305-0.135,0.517
				C18.542-35.578,18.583-35.409,18.67-35.277z"/>
			<path style="fill:#676766;" d="M20.182-36.584h0.094v0.256c0.097-0.196,0.264-0.292,0.509-0.292c0.348,0,0.521,0.189,0.521,0.565
				v1.047h-0.097v-1.016c0-0.165-0.027-0.294-0.086-0.371c-0.065-0.09-0.18-0.137-0.332-0.137c-0.288,0-0.453,0.134-0.501,0.406
				c-0.004,0.029-0.009,0.063-0.01,0.11c-0.001,0.046-0.004,0.099-0.004,0.165v0.842h-0.094V-36.584z"/>
			<path style="fill:#676766;" d="M22.96-35.008h-0.088v-0.348c-0.097,0.257-0.29,0.389-0.573,0.389
				c-0.22,0-0.392-0.081-0.507-0.245c-0.107-0.144-0.161-0.339-0.161-0.58c0-0.237,0.054-0.43,0.161-0.58
				c0.118-0.169,0.287-0.248,0.507-0.248c0.289,0,0.479,0.126,0.573,0.38v-0.951h0.088V-35.008z M22.741-36.309
				c-0.099-0.153-0.246-0.228-0.441-0.228c-0.193,0-0.341,0.075-0.44,0.228c-0.089,0.131-0.132,0.305-0.132,0.517
				c0,0.215,0.043,0.384,0.132,0.516c0.096,0.15,0.246,0.226,0.44,0.226c0.195,0,0.343-0.075,0.441-0.226
				c0.089-0.132,0.132-0.301,0.132-0.516C22.873-36.001,22.83-36.174,22.741-36.309z"/>
			<path style="fill:#676766;" d="M23.971-34.967c-0.227,0-0.394-0.081-0.515-0.245c-0.102-0.149-0.152-0.339-0.152-0.58
				c0-0.237,0.051-0.434,0.152-0.581c0.118-0.168,0.287-0.247,0.515-0.247c0.275,0,0.469,0.133,0.57,0.398v-0.362h0.089v1.576
				h-0.089v-0.339C24.445-35.091,24.252-34.967,23.971-34.967z M23.526-35.277c0.1,0.15,0.247,0.226,0.445,0.226
				c0.188,0,0.337-0.075,0.437-0.226c0.089-0.132,0.134-0.301,0.134-0.516c0-0.209-0.045-0.382-0.134-0.517
				c-0.1-0.153-0.249-0.228-0.437-0.228c-0.198,0-0.343,0.075-0.445,0.228c-0.091,0.131-0.131,0.305-0.131,0.517
				C23.395-35.578,23.435-35.409,23.526-35.277z"/>
			<path style="fill:#676766;" d="M25.038-36.584h0.091v0.256c0.078-0.171,0.244-0.256,0.504-0.254l-0.059,0.088
				c-0.07,0-0.126,0.007-0.161,0.015c-0.062,0.021-0.129,0.075-0.201,0.154c-0.054,0.074-0.083,0.162-0.083,0.263v1.055h-0.091
				V-36.584z"/>
			<path style="fill:#676766;" d="M27.066-35.008h-0.091v-0.348c-0.102,0.257-0.29,0.389-0.574,0.389
				c-0.222,0-0.393-0.081-0.509-0.245c-0.104-0.144-0.155-0.339-0.155-0.58c0-0.237,0.051-0.43,0.155-0.58
				c0.118-0.169,0.289-0.248,0.509-0.248c0.29,0,0.48,0.126,0.574,0.38v-0.951h0.091V-35.008z M26.843-36.309
				c-0.099-0.153-0.249-0.228-0.442-0.228c-0.192,0-0.34,0.075-0.437,0.228c-0.088,0.131-0.134,0.305-0.134,0.517
				c0,0.215,0.043,0.384,0.131,0.516c0.1,0.15,0.247,0.226,0.439,0.226c0.193,0,0.344-0.075,0.442-0.226
				c0.086-0.132,0.132-0.301,0.132-0.516C26.975-36.001,26.929-36.174,26.843-36.309z"/>
			<path style="fill:#676766;" d="M29.491-35.008h-0.094v-0.348c-0.099,0.257-0.289,0.389-0.57,0.389
				c-0.22,0-0.395-0.081-0.51-0.245c-0.106-0.144-0.158-0.339-0.158-0.58c0-0.237,0.052-0.43,0.158-0.58
				c0.115-0.169,0.29-0.248,0.51-0.248c0.286,0,0.479,0.126,0.57,0.38v-0.951h0.094V-35.008z M29.263-36.309
				c-0.097-0.153-0.241-0.228-0.436-0.228c-0.193,0-0.343,0.075-0.442,0.228c-0.089,0.131-0.134,0.305-0.134,0.517
				c0,0.215,0.045,0.384,0.131,0.516c0.103,0.15,0.252,0.226,0.445,0.226c0.195,0,0.34-0.075,0.436-0.226
				c0.094-0.132,0.134-0.301,0.134-0.516C29.397-36.001,29.357-36.174,29.263-36.309z"/>
			<path style="fill:#676766;" d="M31.005-35.008h-0.086v-0.245c-0.1,0.192-0.269,0.286-0.515,0.286
				c-0.346,0-0.518-0.188-0.518-0.563v-1.054h0.092v1.026c0,0.165,0.029,0.288,0.088,0.37c0.067,0.089,0.177,0.136,0.332,0.136
				c0.287,0,0.459-0.136,0.501-0.401c0.006-0.03,0.009-0.07,0.014-0.113c0-0.043,0.006-0.103,0.006-0.165v-0.852h0.086V-35.008z"/>
			<path style="fill:#676766;" d="M31.41-36.584h0.102v0.256c0.089-0.196,0.249-0.292,0.464-0.292c0.249,0,0.394,0.107,0.45,0.323
				c0.104-0.216,0.274-0.323,0.495-0.323c0.316,0,0.478,0.189,0.478,0.565v1.047h-0.097v-0.947c0-0.177-0.011-0.303-0.043-0.373
				c-0.059-0.136-0.171-0.203-0.34-0.203c-0.183,0-0.314,0.069-0.389,0.203c-0.051,0.107-0.081,0.266-0.081,0.467v0.854h-0.088
				v-0.947c0-0.177-0.017-0.303-0.046-0.373c-0.059-0.136-0.163-0.203-0.343-0.203c-0.263,0-0.407,0.133-0.447,0.401
				c-0.008,0.03-0.011,0.067-0.014,0.115c0,0.045,0,0.096,0,0.153v0.854H31.41V-36.584z"/>
			<path style="fill:#676766;" d="M33.791-36.584h0.097v0.256c0.102-0.196,0.252-0.292,0.472-0.292c0.241,0,0.391,0.107,0.442,0.323
				c0.109-0.216,0.272-0.323,0.498-0.323c0.313,0,0.475,0.189,0.475,0.565v1.047h-0.086v-0.947c0-0.177-0.024-0.303-0.049-0.373
				c-0.056-0.136-0.168-0.203-0.34-0.203c-0.183,0-0.313,0.069-0.389,0.203c-0.051,0.107-0.08,0.266-0.08,0.467v0.854H34.74v-0.947
				c0-0.177-0.013-0.303-0.042-0.373c-0.057-0.136-0.172-0.203-0.346-0.203c-0.258,0-0.407,0.133-0.453,0.401
				c-0.003,0.03-0.006,0.067-0.011,0.115c0,0.045,0,0.096,0,0.153v0.854h-0.097V-36.584z"/>
			<path style="fill:#676766;" d="M36.991-34.461c-0.094,0.048-0.203,0.069-0.329,0.069c-0.147,0-0.269-0.04-0.356-0.111
				c-0.102-0.08-0.147-0.195-0.153-0.345h0.081c0.008,0.125,0.051,0.223,0.145,0.286c0.075,0.058,0.177,0.09,0.298,0.09
				c0.23,0,0.386-0.09,0.469-0.265c0.019-0.025,0.023-0.047,0.029-0.069c0.011-0.025,0.016-0.053,0.016-0.083
				c0.011-0.042,0.014-0.091,0.014-0.166v-0.244c-0.099,0.198-0.271,0.291-0.515,0.291c-0.34,0-0.517-0.189-0.517-0.564v-1.048
				h0.091v1.018c0,0.166,0.029,0.291,0.089,0.374c0.072,0.088,0.182,0.137,0.337,0.137c0.287,0,0.456-0.137,0.501-0.41
				c0-0.022,0.009-0.065,0.009-0.108c0.005-0.047,0.005-0.1,0.005-0.166v-0.845h0.097v1.58c0,0.032-0.011,0.065-0.011,0.104
				c-0.006,0.034-0.017,0.072-0.019,0.109C37.23-34.658,37.138-34.536,36.991-34.461z"/>
			<path style="fill:#676766;" d="M38.481-37.021v0.437h0.303v0.083h-0.303v1.493h-0.097v-2.013H38.481z"/>
			<path style="fill:#676766;" d="M39.561-34.967c-0.22,0-0.381-0.084-0.493-0.25c-0.102-0.146-0.15-0.338-0.15-0.575
				c0-0.237,0.049-0.429,0.15-0.572c0.112-0.173,0.273-0.256,0.493-0.256c0.212,0,0.375,0.074,0.482,0.228
				c0.099,0.134,0.155,0.321,0.155,0.546v0.061h-1.185v0.025c0,0.193,0.048,0.357,0.131,0.486c0.103,0.147,0.236,0.223,0.416,0.223
				c0.243,0,0.41-0.119,0.498-0.357l0.069,0.045c-0.031,0.107-0.091,0.193-0.179,0.265C39.839-35.012,39.71-34.967,39.561-34.967z
				 M40.097-35.876c0-0.186-0.046-0.335-0.126-0.453c-0.094-0.138-0.226-0.208-0.397-0.208c-0.171,0-0.311,0.067-0.412,0.198
				c-0.083,0.118-0.134,0.276-0.147,0.463H40.097z"/>
			<path style="fill:#676766;" d="M40.303-35.008l0.555-0.811l-0.53-0.766h0.109l0.48,0.683l0.464-0.683h0.109l-0.522,0.766
				l0.555,0.811H41.42l-0.507-0.737l-0.498,0.737H40.303z"/>
			<path style="fill:#676766;" d="M41.748-37.021v0.437h0.297v0.083h-0.297v1.493h-0.1v-2.013H41.748z"/>
		</g>
		<g>
			<path style="fill:#3976CF;" d="M-2.194-41.109c-0.204,1.162-0.63,1.938-1.278,2.329c-0.449,0.274-1.162,0.411-2.136,0.411h-1.524
				l0.744-4.176c0.018-0.1,0.027-0.188,0.027-0.263c0-0.316-0.173-0.474-0.517-0.474c-0.064,0-0.09-0.034-0.078-0.105
				c0.011-0.058,0.049-0.09,0.114-0.097c0.98-0.151,1.803-0.265,2.469-0.34c0.163-0.018,0.317-0.027,0.463-0.027
				c1.203,0,1.804,0.616,1.804,1.848C-2.106-41.734-2.136-41.435-2.194-41.109z M-3.394-41.091c0.081-0.462,0.122-0.839,0.122-1.129
				c0-0.835-0.353-1.253-1.059-1.253c-0.105,0-0.219,0.009-0.342,0.026l-0.359,0.053l-0.805,4.57h0.35
				c0.619,0,1.085-0.172,1.401-0.517C-3.77-39.684-3.539-40.268-3.394-41.091z"/>
			<path style="fill:#3976CF;" d="M1.343-40.793l-2.434,0.498c-0.018,0.1-0.027,0.202-0.027,0.307c0,0.322,0.076,0.587,0.228,0.798
				c0.169,0.238,0.409,0.358,0.718,0.358c0.362,0,0.733-0.158,1.112-0.473l-0.105,0.56c-0.385,0.309-0.887,0.464-1.506,0.464
				c-0.52,0-0.93-0.127-1.23-0.385c-0.301-0.257-0.451-0.631-0.451-1.121c0-0.146,0.014-0.3,0.043-0.464
				c0.117-0.659,0.391-1.173,0.823-1.54c0.414-0.352,0.922-0.525,1.523-0.525c0.461,0,0.809,0.163,1.041,0.49
				C1.285-41.541,1.373-41.197,1.343-40.793z M0.555-40.952c0.006-0.094,0.009-0.184,0.009-0.271c0-0.544-0.189-0.814-0.569-0.814
				c-0.484,0-0.829,0.47-1.033,1.409L0.555-40.952z"/>
			<path style="fill:#3976CF;" d="M4.583-42.108l-0.088,0.49c-0.496-0.134-0.919-0.201-1.269-0.201
				c-0.152,0-0.301,0.032-0.447,0.097c-0.146,0.065-0.227,0.146-0.245,0.245c-0.017,0.105,0.137,0.257,0.464,0.456
				c0.531,0.321,0.843,0.516,0.936,0.586c0.339,0.263,0.508,0.521,0.508,0.771c0,0.478-0.254,0.843-0.762,1.095
				c-0.391,0.191-0.852,0.288-1.383,0.288c-0.292,0-0.575-0.072-0.849-0.218c-0.036-0.018-0.178-0.114-0.43-0.29l0.122-0.605
				c0.409,0.434,0.832,0.649,1.27,0.649c0.537,0,0.826-0.113,0.867-0.341c0.024-0.129-0.128-0.29-0.455-0.481
				c-0.596-0.351-0.908-0.534-0.937-0.552c-0.345-0.245-0.517-0.496-0.517-0.753c0-0.461,0.233-0.817,0.701-1.068
				c0.373-0.205,0.811-0.307,1.313-0.307C3.717-42.248,4.116-42.201,4.583-42.108z"/>
			<path style="fill:#3976CF;" d="M6.377-42.361l-0.71,3.992H4.452L4.933-41.1c0.023-0.129,0.036-0.236,0.036-0.324
				c0-0.157-0.04-0.266-0.119-0.324c-0.079-0.058-0.212-0.088-0.398-0.088c-0.064-0.005-0.091-0.04-0.079-0.104
				c0.011-0.058,0.049-0.091,0.114-0.096L6.377-42.361z M5.695-42.519c-0.164,0-0.297-0.053-0.398-0.157
				c-0.102-0.105-0.153-0.237-0.153-0.394c0-0.205,0.079-0.386,0.236-0.544c0.157-0.157,0.342-0.236,0.552-0.236
				c0.163,0,0.3,0.051,0.412,0.153c0.11,0.103,0.166,0.232,0.166,0.39c0,0.205-0.083,0.387-0.249,0.548
				C6.093-42.598,5.905-42.519,5.695-42.519z"/>
			<path style="fill:#3976CF;" d="M11.027-42.475c-0.012,0.069-0.05,0.108-0.114,0.114c-0.239,0-0.41,0.051-0.512,0.152
				c-0.102,0.104-0.179,0.298-0.232,0.583L9.6-38.378c-0.082,0.45-0.286,0.842-0.613,1.174c-0.362,0.368-0.785,0.552-1.269,0.552
				H6.37l0.06-0.376h1.357c0.233,0,0.429-0.446,0.587-1.34l0.052-0.263c-0.117,0.129-0.219,0.216-0.306,0.263
				c-0.117,0.058-0.286,0.087-0.508,0.087c-0.479,0-0.847-0.156-1.103-0.473c-0.233-0.285-0.35-0.656-0.35-1.112
				c0-0.145,0.015-0.293,0.043-0.446c0.094-0.537,0.334-0.99,0.723-1.361c0.388-0.371,0.837-0.556,1.344-0.556
				c0.362,0,0.599,0.146,0.71,0.438l0.087-0.456l1.882-0.324C11.013-42.565,11.039-42.533,11.027-42.475z M8.725-40.313
				c0.059-0.361,0.087-0.642,0.087-0.84c0-0.426-0.117-0.639-0.35-0.639c-0.525,0-0.872,0.493-1.042,1.479
				c-0.052,0.269-0.079,0.503-0.079,0.701c0,0.572,0.196,0.857,0.587,0.857c0.344,0,0.589-0.417,0.735-1.252L8.725-40.313z"/>
			<path style="fill:#3976CF;" d="M14.704-40.714l-0.42,2.346h-1.217l0.421-2.373c0.046-0.274,0.069-0.47,0.069-0.587
				c0-0.337-0.14-0.508-0.42-0.508c-0.292,0-0.536,0.108-0.731,0.32c-0.196,0.213-0.32,0.478-0.372,0.792l-0.42,2.355h-1.217
				l0.482-2.731c0.023-0.129,0.035-0.236,0.035-0.324c0-0.157-0.04-0.266-0.118-0.324c-0.079-0.058-0.212-0.088-0.399-0.088
				c-0.064-0.005-0.09-0.04-0.079-0.104c0.012-0.058,0.05-0.091,0.114-0.096l1.891-0.324l-0.096,0.517
				c0.309-0.257,0.744-0.386,1.304-0.386c0.402,0,0.712,0.141,0.928,0.421c0.175,0.233,0.263,0.516,0.263,0.85
				C14.722-40.873,14.716-40.791,14.704-40.714z"/>
			<path style="fill:#3976CF;" d="M21.217-43.823l-0.174,0.998c-0.018,0.064-0.057,0.097-0.114,0.097
				c-0.063,0-0.094-0.032-0.088-0.097c0.012-0.089,0.018-0.161,0.018-0.22c0-0.151-0.049-0.256-0.143-0.315
				c-0.097-0.059-0.266-0.087-0.504-0.087h-1.139c-0.006,0.04-0.129,0.721-0.368,2.039h1.629l-0.061,0.377h-1.629l-0.394,2.207
				h2.083l-0.079,0.455h-3.301l0.736-4.168c0.017-0.104,0.027-0.195,0.027-0.271c0-0.316-0.169-0.474-0.509-0.474
				c-0.064,0-0.09-0.034-0.078-0.105c0.011-0.058,0.049-0.09,0.114-0.097l1.881-0.34H21.217z"/>
			<path style="fill:#3976CF;" d="M22.89-44.147l-1.024,5.778h-1.218l0.798-4.518c0.022-0.129,0.034-0.237,0.034-0.324
				c0-0.275-0.171-0.411-0.516-0.411c-0.064-0.006-0.091-0.042-0.079-0.105c0.011-0.06,0.05-0.092,0.114-0.097L22.89-44.147z"/>
			<path style="fill:#3976CF;" d="M26.051-40.793l-2.434,0.498c-0.018,0.1-0.027,0.202-0.027,0.307c0,0.322,0.076,0.587,0.227,0.798
				c0.169,0.238,0.409,0.358,0.719,0.358c0.361,0,0.732-0.158,1.111-0.473l-0.104,0.56c-0.386,0.309-0.888,0.464-1.506,0.464
				c-0.519,0-0.93-0.127-1.23-0.385c-0.301-0.257-0.45-0.631-0.45-1.121c0-0.146,0.015-0.3,0.042-0.464
				c0.118-0.659,0.392-1.173,0.824-1.54c0.414-0.352,0.922-0.525,1.523-0.525c0.461,0,0.808,0.163,1.042,0.49
				C25.993-41.541,26.08-41.197,26.051-40.793z M25.262-40.952c0.007-0.094,0.01-0.184,0.01-0.271c0-0.544-0.19-0.814-0.569-0.814
				c-0.483,0-0.828,0.47-1.033,1.409L25.262-40.952z"/>
			<path style="fill:#3976CF;" d="M32.908-40.714l-0.413,2.346h-1.217l0.412-2.373c0.052-0.274,0.079-0.47,0.079-0.587
				c0-0.337-0.144-0.508-0.43-0.508c-0.286,0-0.531,0.111-0.735,0.333c-0.181,0.205-0.301,0.465-0.358,0.779l-0.412,2.355h-1.218
				l0.413-2.373c0.052-0.274,0.077-0.47,0.077-0.587c0-0.337-0.142-0.508-0.429-0.508c-0.292,0-0.539,0.111-0.743,0.333
				c-0.181,0.205-0.302,0.465-0.359,0.779l-0.411,2.355h-1.218l0.483-2.731c0.022-0.129,0.035-0.236,0.035-0.324
				c0-0.157-0.041-0.266-0.118-0.324c-0.079-0.058-0.216-0.088-0.407-0.088c-0.059-0.005-0.082-0.04-0.071-0.104
				c0.007-0.058,0.044-0.091,0.114-0.096l1.882-0.324l-0.087,0.508c0.327-0.251,0.759-0.377,1.296-0.377
				c0.619,0,0.992,0.235,1.121,0.709c0.268-0.474,0.782-0.709,1.541-0.709c0.414,0,0.724,0.114,0.929,0.342
				c0.186,0.203,0.279,0.476,0.279,0.814C32.942-40.958,32.93-40.838,32.908-40.714z"/>
			<path style="fill:#3976CF;" d="M36.576-40.793l-2.435,0.498c-0.018,0.1-0.026,0.202-0.026,0.307c0,0.322,0.076,0.587,0.227,0.798
				c0.169,0.238,0.408,0.358,0.718,0.358c0.362,0,0.733-0.158,1.112-0.473l-0.104,0.56c-0.386,0.309-0.889,0.464-1.506,0.464
				c-0.519,0-0.93-0.127-1.231-0.385c-0.3-0.257-0.45-0.631-0.45-1.121c0-0.146,0.015-0.3,0.043-0.464
				c0.118-0.659,0.392-1.173,0.824-1.54c0.414-0.352,0.922-0.525,1.523-0.525c0.461,0,0.808,0.163,1.042,0.49
				C36.517-41.541,36.604-41.197,36.576-40.793z M35.787-40.952c0.007-0.094,0.01-0.184,0.01-0.271c0-0.544-0.19-0.814-0.57-0.814
				c-0.483,0-0.827,0.47-1.032,1.409L35.787-40.952z"/>
			<path style="fill:#3976CF;" d="M40.708-40.714l-0.419,2.346h-1.218l0.42-2.373c0.047-0.274,0.07-0.47,0.07-0.587
				c0-0.337-0.14-0.508-0.421-0.508c-0.291,0-0.534,0.108-0.73,0.32c-0.195,0.213-0.32,0.478-0.372,0.792l-0.421,2.355H36.4
				l0.481-2.731c0.024-0.129,0.036-0.236,0.036-0.324c0-0.157-0.04-0.266-0.119-0.324c-0.079-0.058-0.212-0.088-0.398-0.088
				c-0.064-0.005-0.091-0.04-0.079-0.104c0.013-0.058,0.05-0.091,0.114-0.096l1.892-0.324l-0.097,0.517
				c0.31-0.257,0.744-0.386,1.306-0.386c0.401,0,0.711,0.141,0.927,0.421c0.176,0.233,0.263,0.516,0.263,0.85
				C40.725-40.873,40.719-40.791,40.708-40.714z"/>
			<path style="fill:#3976CF;" d="M43.283-42.248l-0.079,0.421h-0.656l-0.395,2.249c-0.034,0.188-0.052,0.324-0.052,0.412
				c0,0.274,0.188,0.411,0.569,0.411c0.064,0,0.166-0.008,0.306-0.025l-0.078,0.438c-0.257,0.041-0.44,0.061-0.552,0.061
				c-0.976,0-1.463-0.273-1.463-0.822c0-0.07,0.007-0.144,0.019-0.219l0.437-2.504h-0.63l0.079-0.421h0.63L41.549-43l1.243-0.218
				l-0.166,0.971H43.283z"/>
		</g>
	</g>
</g>
</svg>
